<svg width="16" height="16" viewBox="0 0 16 16" fill="none" xmlns="http://www.w3.org/2000/svg">
<mask id="path-1-inside-1_665_5868" fill="white">
<path fill-rule="evenodd" clip-rule="evenodd" d="M10.0264 5.23926H14.5V15H1.5V5.23926H5.97363V1H10.0264V5.23926ZM2.5 14H4.52148V11.0957H5.52148V14H13.5V9.6748H2.5V14ZM6.97363 6.23926H2.5V8.6748H13.5V6.23926H9.02637V2H6.97363V6.23926Z"/>
</mask>
<path d="M10.0264 5.23926H9.02637V6.23926H10.0264V5.23926ZM14.5 5.23926H15.5V4.23926H14.5V5.23926ZM14.5 15V16H15.5V15H14.5ZM1.5 15H0.5V16H1.5V15ZM1.5 5.23926V4.23926H0.5V5.23926H1.5ZM5.97363 5.23926V6.23926H6.97363V5.23926H5.97363ZM5.97363 1V0H4.97363V1H5.97363ZM10.0264 1H11.0264V0H10.0264V1ZM2.5 14H1.5V15H2.5V14ZM4.52148 14V15H5.52148V14H4.52148ZM4.52148 11.0957V10.0957H3.52148V11.0957H4.52148ZM5.52148 11.0957H6.52148V10.0957H5.52148V11.0957ZM5.52148 14H4.52148V15H5.52148V14ZM13.5 14V15H14.5V14H13.5ZM13.5 9.6748H14.5V8.6748H13.5V9.6748ZM2.5 9.6748V8.6748H1.5V9.6748H2.5ZM6.97363 6.23926V7.23926H7.97363V6.23926H6.97363ZM2.5 6.23926V5.23926H1.5V6.23926H2.5ZM2.5 8.6748H1.5V9.6748H2.5V8.6748ZM13.5 8.6748V9.6748H14.5V8.6748H13.5ZM13.5 6.23926H14.5V5.23926H13.5V6.23926ZM9.02637 6.23926H8.02637V7.23926H9.02637V6.23926ZM9.02637 2H10.0264V1H9.02637V2ZM6.97363 2V1H5.97363V2H6.97363ZM10.0264 5.23926V6.23926H14.5V5.23926V4.23926H10.0264V5.23926ZM14.5 5.23926H13.5V15H14.5H15.5V5.23926H14.5ZM14.5 15V14H1.5V15V16H14.5V15ZM1.5 15H2.5V5.23926H1.5H0.5V15H1.5ZM1.5 5.23926V6.23926H5.97363V5.23926V4.23926H1.5V5.23926ZM5.97363 5.23926H6.97363V1H5.97363H4.97363V5.23926H5.97363ZM5.97363 1V2H10.0264V1V0H5.97363V1ZM10.0264 1H9.02637V5.23926H10.0264H11.0264V1H10.0264ZM2.5 14V15H4.52148V14V13H2.5V14ZM4.52148 14H5.52148V11.0957H4.52148H3.52148V14H4.52148ZM4.52148 11.0957V12.0957H5.52148V11.0957V10.0957H4.52148V11.0957ZM5.52148 11.0957H4.52148V14H5.52148H6.52148V11.0957H5.52148ZM5.52148 14V15H13.5V14V13H5.52148V14ZM13.5 14H14.5V9.6748H13.5H12.5V14H13.5ZM13.5 9.6748V8.6748H2.5V9.6748V10.6748H13.5V9.6748ZM2.5 9.6748H1.5V14H2.5H3.5V9.6748H2.5ZM6.97363 6.23926V5.23926H2.5V6.23926V7.23926H6.97363V6.23926ZM2.5 6.23926H1.5V8.6748H2.5H3.5V6.23926H2.5ZM2.5 8.6748V9.6748H13.5V8.6748V7.6748H2.5V8.6748ZM13.5 8.6748H14.5V6.23926H13.5H12.5V8.6748H13.5ZM13.5 6.23926V5.23926H9.02637V6.23926V7.23926H13.5V6.23926ZM9.02637 6.23926H10.0264V2H9.02637H8.02637V6.23926H9.02637ZM9.02637 2V1H6.97363V2V3H9.02637V2ZM6.97363 2H5.97363V6.23926H6.97363H7.97363V2H6.97363Z" fill="black" fill-opacity="0.4" style="fill:black;fill-opacity:0.4;" mask="url(#path-1-inside-1_665_5868)"/>
</svg>
