<svg width="12" height="17" viewBox="0 0 12 17" fill="none" xmlns="http://www.w3.org/2000/svg">
<path d="M10.71 4.355L9.28 5.785C9.731 6.434 10 7.217 10 8.065C10 10.271 8.206 12.065 6 12.065V10L3 13.033L6 16.065V14.065C9.314 14.065 12 11.379 12 8.065C12 6.663 11.515 5.377 10.71 4.355Z" fill="#006EFF" style="fill:#006EFF;fill:color(display-p3 0.0000 0.4314 1.0000);fill-opacity:1;"/>
<path d="M6 4.065V6.065L9 3.033L6 0V2.065C2.686 2.065 0 4.751 0 8.065C0 9.467 0.485 10.753 1.29 11.775L2.72 10.345C2.269 9.697 2 8.913 2 8.065C2 5.859 3.794 4.065 6 4.065Z" fill="#006EFF" style="fill:#006EFF;fill:color(display-p3 0.0000 0.4314 1.0000);fill-opacity:1;"/>
</svg>