<svg width="42" height="42" viewBox="0 0 42 42" fill="none" xmlns="http://www.w3.org/2000/svg">
<path fill-rule="evenodd" clip-rule="evenodd" d="M41.5703 5.25676C41.6993 5.54496 41.8027 5.8813 41.8806 6.2648C41.9605 6.64941 42 7.04894 42 7.46463C42 7.88031 41.9201 8.29594 41.7611 8.71266C41.6012 9.12828 41.3463 9.52897 40.9966 9.91248C40.6148 10.296 40.2725 10.6324 39.9697 10.9194C39.6669 11.2076 39.4046 11.4636 39.1817 11.6875C38.9269 11.9436 38.688 12.1675 38.4652 12.3592L29.5318 3.38536C29.9135 3.03397 30.3677 2.60975 30.8934 2.11381C31.4191 1.61786 31.8563 1.2268 32.2071 0.937569C32.6528 0.586179 33.1145 0.338755 33.5922 0.194139C34.0699 0.0506213 34.5401 -0.0136724 35.0018 0.00241629C35.4635 0.0185049 35.9092 0.0902335 36.3389 0.218821C36.7686 0.346311 37.1429 0.489829 37.4617 0.650533C38.1303 1.00296 38.8703 1.61786 39.6828 2.49738C40.4955 3.3778 41.1246 4.29693 41.5703 5.25676ZM4.35798 28.6763C4.54882 28.4835 4.99455 28.0282 5.69511 27.3083C6.39567 26.5885 7.27215 25.7004 8.32247 24.6452L11.8103 21.1423L15.6788 17.2548L25.9492 6.93651L34.8826 15.9585L24.6121 26.2767L20.7905 30.1632C19.5174 31.4112 18.3701 32.5553 17.3507 33.5944C16.3324 34.6345 15.4879 35.4905 14.8193 36.1622C14.1508 36.8339 13.7531 37.2184 13.6251 37.3137C13.3073 37.6019 12.9405 37.9061 12.5268 38.2253C12.1131 38.5457 11.6823 38.8017 11.2366 38.9935C10.7908 39.2174 10.1383 39.4895 9.27781 39.8098C8.41838 40.129 7.51843 40.4408 6.57905 40.745C5.63967 41.0492 4.74821 41.3138 3.9037 41.5377C3.06029 41.7605 2.43118 41.9051 2.01742 41.9694C1.1569 42.0647 0.584332 41.9373 0.297471 41.5848C0.0106108 41.2334 -0.0682471 40.6411 0.0585928 39.8098C0.122589 39.362 0.273996 38.7139 0.512814 37.8655C0.761782 36.984 1.01628 36.1041 1.27628 35.2259C1.54713 34.3143 1.80942 33.4755 2.06534 32.7074C2.32018 31.9393 2.52703 31.4112 2.68589 31.1231C2.87673 30.6753 3.09213 30.2682 3.33101 29.8997C3.57001 29.5322 3.91226 29.1241 4.35798 28.6763ZM20.7862 37.7273C20.51 37.7273 20.2862 37.9511 20.2862 38.2273V41.4994C20.2862 41.7756 20.51 41.9994 20.7862 41.9994H23.7862C24.0623 41.9994 24.2862 41.7756 24.2862 41.4994V38.2273C24.2862 37.9511 24.0623 37.7273 23.7862 37.7273H20.7862ZM28.9657 38.2273C28.9657 37.9511 29.1896 37.7273 29.4657 37.7273H32.7373C33.0134 37.7273 33.2373 37.9511 33.2373 38.2273V41.4994C33.2373 41.7756 33.0134 41.9994 32.7373 41.9994H29.4657C29.1896 41.9994 28.9657 41.7756 28.9657 41.4994V38.2273ZM38.1794 37.7273C37.9033 37.7273 37.6794 37.9511 37.6794 38.2273V41.4994C37.6794 41.7756 37.9033 41.9994 38.1794 41.9994H41.451C41.7271 41.9994 41.951 41.7756 41.951 41.4994V38.2273C41.951 37.9511 41.7271 37.7273 41.451 37.7273H38.1794Z" fill="#595A5A"/>
</svg>
