<svg width="80" height="80" viewBox="0 0 80 80" fill="none" xmlns="http://www.w3.org/2000/svg">
<rect width="80" height="80" rx="9.6" fill="#6B77FF"/>
<path d="M35.5043 57.0257L29.3847 60.7217C28.0971 61.4994 26.4606 60.5535 26.481 59.0435L26.5568 53.4323C21.2323 49.8401 18 44.2868 18 38.2234C18 27.5351 27.9102 19 40 19C52.0899 19 62 27.5351 62 38.2234C62 48.9127 52.0904 57.4468 40 57.4468C38.5014 57.4468 37.0056 57.3032 35.5043 57.0257V57.0257Z" fill="white"/>
<path d="M48 38C48 39.656 49.344 41 51 41C52.656 41 54 39.656 54 38C54 36.344 52.656 35 51 35C49.344 35 48 36.344 48 38Z" fill="#6B77FF"/>
<path d="M26 38C26 39.656 27.344 41 29 41C30.656 41 32 39.656 32 38C32 36.344 30.656 35 29 35C27.344 35 26 36.344 26 38Z" fill="#6B77FF"/>
<path d="M37 38C37 39.656 38.344 41 40 41C41.656 41 43 39.656 43 38C43 36.344 41.656 35 40 35C38.344 35 37 36.344 37 38Z" fill="#6B77FF"/>
</svg>
