<svg width="48" height="48" viewBox="0 0 48 48" fill="none" xmlns="http://www.w3.org/2000/svg">
<g id="more">
<path id="&#229;&#189;&#162;&#231;&#138;&#182;&#231;&#187;&#147;&#229;&#144;&#136;" fill-rule="evenodd" clip-rule="evenodd" d="M7 22C7 21.4477 7.44772 21 8 21H12C12.5523 21 13 21.4477 13 22V26C13 26.5523 12.5523 27 12 27H8C7.44772 27 7 26.5523 7 26V22ZM21 22C21 21.4477 21.4477 21 22 21H26C26.5523 21 27 21.4477 27 22V26C27 26.5523 26.5523 27 26 27H22C21.4477 27 21 26.5523 21 26V22ZM36 21C35.4477 21 35 21.4477 35 22V26C35 26.5523 35.4477 27 36 27H40C40.5523 27 41 26.5523 41 26V22C41 21.4477 40.5523 21 40 21H36Z" fill="#666666"/>
</g>
</svg>
